<svg version="1.1" xmlns="http://www.w3.org/2000/svg" xmlns:xlink="http://www.w3.org/1999/xlink" x="0px" y="0px"
	 viewBox="0 0 118.5 67.667" style="enable-background:new 0 0 118.5 67.667;" xml:space="preserve">
<style type="text/css">
	.st3{fill:none;stroke:#FFFFFF;stroke-miterlimit:10;}
</style>

<defs>
	<style type="text/css">
		.st3 {
			stroke-dasharray: 200;
			stroke-dashoffset: 0;
			-webkit-animation: dash 10s linear infinite;
		}

		@-webkit-keyframes dash {
			from {
				stroke-dashoffset: 800;
			}
			to {
				stroke-dashoffset: 0;
			}
		}

	</style>
</defs>

<g>
	<path class="st3" d="M105.068,39.837c-0.233,4.515-0.677,9.062-2.01,13.446c-0.726,2.386-1.621,4.682-3.037,6.754
		c-1.936,2.835-4.638,4.518-7.97,5.139c-1.498,0.279-3.041,0.376-4.568,0.416c-2.477,0.067-4.958,0.018-7.679,0.018V33.939V2.27
		c2.721,0,5.202-0.049,7.679,0.018c1.527,0.04,3.07,0.136,4.568,0.416c3.332,0.621,6.034,2.303,7.97,5.139
		c1.1,1.61,2.198,3.994,3.037,6.753c1.332,4.386,1.777,8.933,2.01,13.448c0.101,1.962,0.176,3.928,0.203,5.896
		C105.244,35.908,105.168,37.874,105.068,39.837 M70.325,66.661c8.105,0.001,8.445-0.04,16.55,0.022
		c2.979,0.022,5.887-0.368,8.758-1.066c8.309-2.02,14.387-6.944,18.249-14.508c2.815-5.517,4.017-11.273,3.949-17.171
		c0.068-5.896-1.134-11.654-3.949-17.169c-3.861-7.564-9.939-12.487-18.249-14.508c-2.871-0.698-5.779-1.088-8.758-1.066
		c-3.29,0.025-5.302,0.033-7.071,0.034V1.22h-5.711c-1.06-0.001-2.283-0.001-3.768-0.001L60.303,1.22v1.035h7.764h0.437v63.36
		h-8.201v1.035L70.325,66.661z"/>
	<path class="st3" d="M13.303,33.94c0.027-1.968,0.102-3.935,0.203-5.898c0.233-4.513,0.677-9.062,2.011-13.446
		c0.839-2.76,1.936-5.143,3.035-6.754c1.936-2.835,4.638-4.518,7.971-5.139c1.497-0.279,3.041-0.376,4.567-0.416
		c2.478-0.067,4.958-0.018,7.679-0.018V33.94v31.67c-2.721,0-5.201,0.049-7.679-0.016c-1.525-0.042-3.07-0.138-4.567-0.416
		c-3.333-0.623-6.035-2.305-7.971-5.14c-1.414-2.072-2.311-4.368-3.035-6.753c-1.334-4.386-1.779-8.933-2.011-13.448
		C13.405,37.874,13.33,35.908,13.303,33.94 M58.271,66.649v-1.033H50.07V2.254h0.439h7.762V1.221L48.248,1.218
		c-1.485,0-2.708,0.001-3.766,0.003H38.77V1.23c-1.77,0-3.78-0.009-7.07-0.034c-2.981-0.022-5.889,0.368-8.76,1.066
		C14.631,4.282,8.553,9.206,4.693,16.769C1.878,22.286,0.675,28.043,0.745,33.94c-0.07,5.896,1.134,11.654,3.949,17.169
		c3.86,7.564,9.938,12.489,18.247,14.508c2.871,0.698,5.779,1.089,8.76,1.066c8.103-0.061,8.445-0.021,16.548-0.022L58.271,66.649z
		"/>
</g>
</svg>
