<svg version="1.1" id="Ebene_2" xmlns="http://www.w3.org/2000/svg" xmlns:xlink="http://www.w3.org/1999/xlink" x="0px" y="0px"
	 viewBox="0 0 311.021 166" style="enable-background:new 0 0 311.021 166;" xml:space="preserve">

<style type="text/css">
	.st0{fill:none;stroke:#FFFFFF;stroke-width:2;stroke-miterlimit:10;}
</style>

<defs>
	<style type="text/css">
		.st0 {
			stroke-dasharray: 705;
			stroke-dashoffset: 0;
			-webkit-animation: dash 4s linear infinite;
		}

		@-webkit-keyframes dash {
			from {
				stroke-dashoffset: 800;
			}
			to {
				stroke-dashoffset: 0;
			}
		}

	</style>
</defs>

<g>
	<path id="js-font" class="st0" d="M16.175,135.02V99.627c0-3.774-0.708-6.429-2.124-7.964c-1.416-1.531-3.835-2.3-7.255-2.3H1.841v-15.75h4.955
		c3.42,0,5.839-0.854,7.255-2.566c1.416-1.709,2.124-4.452,2.124-8.229V31.673c0-10.972,2.389-18.551,7.167-22.74
		c4.778-4.186,12.122-6.282,22.032-6.282h9.025v15.927H42.896c-3.893,0-6.667,1.239-8.317,3.716
		c-1.654,2.478-2.478,6.608-2.478,12.387v28.668c0,3.304-0.531,6.224-1.593,8.76c-1.062,2.539-2.389,4.424-3.982,5.663
		c-1.592,1.239-2.92,2.124-3.981,2.654c-1.062,0.531-2.007,0.857-2.832,0.973c0.708,0.238,1.562,0.62,2.566,1.15
		c1.001,0.53,2.328,1.415,3.982,2.654c1.65,1.239,3.036,3.097,4.159,5.574c1.12,2.478,1.681,5.31,1.681,8.494v32.738
		c0,5.898,0.854,10.057,2.566,12.477c1.708,2.416,4.748,3.627,9.113,3.627h10.618v15.927h-9.025c-9.91,0-17.254-2.096-22.032-6.282
		C18.564,153.57,16.175,145.991,16.175,135.02z"/>
	<path class="st0" d="M65.015,105.467l21.413-6.194c1.651,8.732,5.367,13.096,11.149,13.096c3.301,0,5.751-0.885,7.344-2.654
		s2.389-4.778,2.389-9.025V7.96h23.89v90.959c0,12.033-2.95,20.97-8.848,26.81c-5.9,5.84-14.157,8.76-24.774,8.76
		c-9.556,0-17.107-2.859-22.651-8.583C69.378,120.185,66.077,113.372,65.015,105.467z"/>
	<path class="st0" d="M150.665,90.425l25.129-5.486c1.531,9.675,4.039,16.665,7.521,20.971c3.479,4.308,9.17,6.459,17.076,6.459
		c6.725,0,12.092-1.208,16.104-3.628c4.01-2.417,6.018-5.986,6.018-10.706c0-4.955-1.92-8.76-5.752-11.414
		c-3.836-2.655-12.596-6.105-26.279-10.353c-12.859-4.009-21.975-8.876-27.34-14.6c-5.371-5.721-8.053-12.769-8.053-21.147
		c0-9.672,3.744-17.961,11.236-24.863c7.492-6.901,17.666-10.352,30.527-10.352c11.68,0,21.736,2.831,30.172,8.494
		c8.434,5.663,13.715,14.099,15.838,25.306l-23.182,5.84c-3.658-11.68-11.268-17.52-22.828-17.52c-6.137,0-10.707,1.181-13.715,3.54
		c-3.008,2.361-4.512,5.486-4.512,9.379c0,3.658,1.707,6.459,5.131,8.406c3.42,1.946,12.211,5.339,26.367,10.175
		c13.686,4.72,23.064,9.821,28.137,15.307s7.609,12.891,7.609,22.209c0,10.972-4.131,20.058-12.387,27.252
		c-8.26,7.197-19.289,10.795-33.092,10.795c-14.041,0-25.395-3.686-34.066-11.06C157.656,116.057,152.435,105.055,150.665,90.425z"
		/>
	<path class="st0" d="M295.597,99.627v35.393c0,10.972-2.39,18.551-7.167,22.739c-4.778,4.187-12.122,6.282-22.032,6.282h-9.025
		v-15.927h10.618c4.363,0,7.402-1.211,9.113-3.627c1.709-2.42,2.566-6.578,2.566-12.477V99.272c0-3.185,0.531-6.017,1.593-8.494
		s2.416-4.335,4.07-5.574c1.65-1.239,2.978-2.124,3.981-2.654c1.001-0.531,1.858-0.913,2.565-1.15
		c-0.707-0.116-1.593-0.442-2.654-0.973s-2.389-1.416-3.981-2.654s-2.92-3.125-3.981-5.663c-1.062-2.536-1.593-5.456-1.593-8.76
		V34.681c0-5.779-0.827-9.91-2.478-12.387c-1.653-2.478-4.424-3.716-8.317-3.716h-11.503V2.651h9.025
		c9.91,0,17.254,2.096,22.032,6.282c4.777,4.189,7.167,11.768,7.167,22.74v31.146c0,3.777,0.708,6.52,2.123,8.229
		c1.416,1.711,3.833,2.566,7.256,2.566h4.955v15.75h-4.955c-3.423,0-5.84,0.769-7.256,2.3
		C296.305,93.198,295.597,95.853,295.597,99.627z"/>
</g>
</svg>
