<svg version="1.1" xmlns="http://www.w3.org/2000/svg" xmlns:xlink="http://www.w3.org/1999/xlink" x="0px" y="0px"
	 viewBox="0 0 118.5 118" style="enable-background:new 0 0 118.5 118;" xml:space="preserve">


<style type="text/css">
	.st3{fill:none;stroke:#FFFFFF;stroke-miterlimit:10;}
</style>

<defs>
	<style type="text/css">
		.st3 {
			stroke-dasharray: 400;
			stroke-dashoffset: 0;
			-webkit-animation: dash 6s linear infinite;
		}

		@-webkit-keyframes dash {
			from {
				stroke-dashoffset: 800;
			}
			to {
				stroke-dashoffset: 0;
			}
		}

	</style>
</defs>

<g>
	<path class="st3" d="M83.792,10.707c-7.67-4.003-16.31-6.235-25.468-6.235c-9.215,0-17.914,2.232-25.527,6.235v0.001
		c-17.57,9.21-29.531,27.571-29.531,48.735c0,21.165,11.961,39.584,29.532,48.794c7.613,3.947,16.312,6.234,25.526,6.234
		c9.156,0,17.798-2.287,25.468-6.29c17.512-9.153,29.474-27.572,29.474-48.737C113.266,38.278,101.304,19.917,83.792,10.707z
		 M8.761,59.443c0-18.018,9.615-33.748,24.038-42.443v-0.004c7.04-4.232,15.223-6.748,24.036-7.035l-6.238,45.019l-17.8,13.901
		v0.001L14.714,83.011C10.936,76.033,8.761,67.965,8.761,59.443z M83.792,101.887c-7.496,4.517-16.196,7.092-25.468,7.092
		c-9.33,0-18.085-2.575-25.526-7.092c-6.697-4.005-12.306-9.551-16.426-16.132l16.426-6.748v-0.001l25.41-10.41l25.584,10.354
		v-0.001l16.484,6.691C96.154,92.275,90.489,97.881,83.792,101.887z M83.792,68.767v0.002L66.107,54.982L59.812,9.963
		c8.699,0.287,16.94,2.802,23.98,7.037v-0.003c14.364,8.696,23.98,24.482,23.98,42.444c0,8.524-2.118,16.475-5.895,23.455
		L83.792,68.767z"/>
</g>
</svg>
