<?xml version="1.0" encoding="utf-8"?>
<!-- Generator: Adobe Illustrator 19.0.0, SVG Export Plug-In . SVG Version: 6.00 Build 0)  -->
<svg version="1.1" id="Ebene_1" xmlns="http://www.w3.org/2000/svg" xmlns:xlink="http://www.w3.org/1999/xlink" x="0px" y="0px"
	 viewBox="0 0 79 44.2" style="enable-background:new 0 0 79 44.2;" xml:space="preserve">
<style type="text/css">
	.st0{fill:#FFFFFF;}
</style>
<g>
	<path class="st0" d="M70.4,26.1c-0.2,3-0.5,6.1-1.4,9.1c-0.5,1.6-1.1,3.2-2,4.6c-1.3,1.9-3.1,3-5.4,3.5c-1,0.2-2.1,0.3-3.1,0.3
		c-1.7,0-3.3,0-5.2,0V22.1V0.7c1.8,0,3.5,0,5.2,0c1,0,2.1,0.1,3.1,0.3c2.2,0.4,4.1,1.6,5.4,3.5c0.7,1.1,1.5,2.7,2,4.6
		c0.9,3,1.2,6,1.4,9.1c0.1,1.3,0.1,2.6,0.1,4C70.5,23.4,70.5,24.7,70.4,26.1 M46.9,44.2c5.5,0,5.7,0,11.2,0c2,0,4-0.2,5.9-0.7
		c5.6-1.4,9.7-4.7,12.3-9.8C78.2,30,79,26.1,79,22.1c0-4-0.8-7.9-2.7-11.6C73.7,5.4,69.6,2.1,64,0.7C62.1,0.2,60.1,0,58.1,0
		c-2.2,0-3.6,0-4.8,0v0h-3.9c-0.7,0-1.5,0-2.5,0l-6.8,0v0.7h5.2h0.3v42.7h-5.5v0.7L46.9,44.2z"/>
	<path class="st0" d="M8.5,22.1c0-1.3,0.1-2.7,0.1-4C8.8,15.1,9.1,12,10,9c0.6-1.9,1.3-3.5,2-4.6c1.3-1.9,3.1-3,5.4-3.5
		c1-0.2,2.1-0.3,3.1-0.3c1.7,0,3.3,0,5.2,0v21.4v21.4c-1.8,0-3.5,0-5.2,0c-1,0-2.1-0.1-3.1-0.3c-2.2-0.4-4.1-1.6-5.4-3.5
		c-1-1.4-1.6-2.9-2-4.6c-0.9-3-1.2-6-1.4-9.1C8.5,24.7,8.5,23.4,8.5,22.1 M38.8,44.2v-0.7h-5.5V0.7h0.3h5.2V0l-6.8,0
		c-1,0-1.8,0-2.5,0h-3.9v0c-1.2,0-2.6,0-4.8,0c-2,0-4,0.2-5.9,0.7C9.4,2.1,5.3,5.4,2.7,10.5C0.8,14.2,0,18.1,0,22.1
		c0,4,0.8,7.9,2.7,11.6c2.6,5.1,6.7,8.4,12.3,9.8c1.9,0.5,3.9,0.7,5.9,0.7c5.5,0,5.7,0,11.2,0L38.8,44.2z"/>
</g>
</svg>
